<svg width="16" height="16" viewBox="0 0 16 16" fill="none" xmlns="http://www.w3.org/2000/svg">
<path d="M10.6782 1.3335H5.29816C4.24693 1.33473 3.23912 1.75292 2.49585 2.49632C1.75258 3.23972 1.33455 4.2476 1.3335 5.29883L1.3335 10.6788C1.33473 11.7301 1.75292 12.7379 2.49632 13.4811C3.23972 14.2244 4.2476 14.6424 5.29883 14.6435H10.6788C11.7301 14.6423 12.7379 14.2241 13.4811 13.4807C14.2244 12.7373 14.6424 11.7294 14.6435 10.6782V5.29816C14.6423 4.24693 14.2241 3.23912 13.4807 2.49585C12.7373 1.75258 11.7294 1.33455 10.6782 1.3335V1.3335ZM13.3048 10.6782C13.3048 11.0231 13.2369 11.3647 13.1049 11.6833C12.9729 12.002 12.7794 12.2916 12.5355 12.5355C12.2916 12.7794 12.002 12.9729 11.6833 13.1049C11.3647 13.2369 11.0231 13.3048 10.6782 13.3048H5.29816C4.60164 13.3047 3.93371 13.0278 3.44126 12.5353C2.94881 12.0427 2.67216 11.3747 2.67216 10.6782V5.29816C2.67234 4.60164 2.94915 3.93371 3.44173 3.44126C3.93431 2.94881 4.60231 2.67216 5.29883 2.67216H10.6788C11.3753 2.67234 12.0433 2.94915 12.5357 3.44173C13.0282 3.93431 13.3048 4.60231 13.3048 5.29883V10.6788V10.6782Z" fill="white"/>
<path d="M7.98821 4.5459C7.07583 4.54731 6.20123 4.91042 5.55614 5.55564C4.91105 6.20085 4.54811 7.07552 4.54688 7.9879C4.54793 8.90051 4.91089 9.77545 5.55614 10.4208C6.20139 11.0662 7.07626 11.4293 7.98887 11.4306C8.9016 11.4295 9.77664 11.0665 10.422 10.4211C11.0674 9.77567 11.4305 8.90063 11.4315 7.9879C11.4301 7.07529 11.0668 6.20049 10.4213 5.55536C9.77583 4.91023 8.90082 4.54745 7.98821 4.54657V4.5459ZM7.98821 10.0919C7.43037 10.0919 6.89538 9.8703 6.50093 9.47585C6.10648 9.08139 5.88488 8.5464 5.88488 7.98857C5.88488 7.43073 6.10648 6.89574 6.50093 6.50128C6.89538 6.10683 7.43037 5.88523 7.98821 5.88523C8.54605 5.88523 9.08104 6.10683 9.47549 6.50128C9.86994 6.89574 10.0915 7.43073 10.0915 7.98857C10.0915 8.5464 9.86994 9.08139 9.47549 9.47585C9.08104 9.8703 8.54605 10.0919 7.98821 10.0919V10.0919Z" fill="white"/>
<path d="M11.4375 5.39689C11.8929 5.39689 12.2621 5.02768 12.2621 4.57223C12.2621 4.11677 11.8929 3.74756 11.4375 3.74756C10.982 3.74756 10.6128 4.11677 10.6128 4.57223C10.6128 5.02768 10.982 5.39689 11.4375 5.39689Z" fill="white"/>
</svg>
