<svg width="122" height="123" viewBox="0 0 122 123" fill="none" xmlns="http://www.w3.org/2000/svg">
<path fill-rule="evenodd" clip-rule="evenodd" d="M64.9996 51.0907C64.9667 48.7097 64.6548 46.3082 64.0308 43.8903C61.8427 35.405 52.0807 29.9575 41.6905 28.6767C31.3044 27.3959 20.5037 30.3105 16.341 37.6915C13.96 41.9116 13.6316 45.5488 14.6045 48.6153C15.5733 51.6654 17.8721 54.1941 20.992 56.1646C29.6909 61.6531 44.9254 62.7738 51.8754 60.4791C55.0898 59.4159 58.2301 58.1352 61.2885 56.6696C59.5397 66.2633 53.0247 75.352 44.33 83.5417C25.4338 101.342 -3.88937 114.851 -19.8585 119.819C-20.7165 120.086 -21.1927 120.997 -20.9259 121.855C-20.6591 122.713 -19.7477 123.193 -18.8897 122.926C-2.60451 117.861 27.2895 104.063 46.5592 85.9104C56.5142 76.5343 63.6079 65.98 64.819 54.8839C87.3235 42.8599 105.805 21.0454 121.606 2.68724C122.193 2.0099 122.115 0.979473 121.434 0.392441C120.752 -0.190487 119.726 -0.116627 119.139 0.564824C103.982 18.1717 86.3916 39.1161 64.9996 51.0907ZM61.7279 52.8354C61.851 50.1589 61.5882 47.4412 60.878 44.699C58.9855 37.3549 50.2866 33.0118 41.2922 31.9034C35.7789 31.226 30.1097 31.7843 25.6638 33.7712C22.8682 35.0192 20.5651 36.8295 19.1775 39.2926C17.3548 42.5233 16.9607 45.2861 17.7079 47.6301C18.455 49.9906 20.3107 51.8871 22.7287 53.4101C30.6558 58.4142 44.5271 59.4775 50.8531 57.388C54.5848 56.1565 58.2056 54.6211 61.7279 52.8354Z" fill="url(#paint0_linear_3338_1288)"/>
<defs>
<linearGradient id="paint0_linear_3338_1288" x1="50.5" y1="0" x2="50.5" y2="123" gradientUnits="userSpaceOnUse">
<stop stop-color="#B29D71"/>
<stop offset="1" stop-color="white"/>
</linearGradient>
</defs>
</svg>
