<svg width="14" height="11" viewBox="0 0 14 11" fill="none" xmlns="http://www.w3.org/2000/svg">
<path d="M13.3333 1.26135C12.8336 1.4796 12.3043 1.62271 11.7627 1.68602C12.3312 1.35217 12.7587 0.822755 12.9653 0.196685C12.4267 0.510237 11.8392 0.731087 11.2273 0.850018C10.9697 0.580155 10.6598 0.36561 10.3165 0.21947C9.97322 0.073331 9.60376 -0.00133823 9.23067 1.81529e-05C7.72 1.81529e-05 6.49533 1.20668 6.49533 2.69335C6.49533 2.90402 6.51933 3.11002 6.566 3.30668C5.48238 3.25515 4.42141 2.97829 3.45078 2.49378C2.48015 2.00927 1.62117 1.32774 0.928667 0.492685C0.685884 0.902286 0.558277 1.36987 0.559333 1.84602C0.559798 2.29133 0.671219 2.7295 0.883526 3.12095C1.09583 3.51239 1.40234 3.84476 1.77533 4.08802C1.34166 4.07402 0.917347 3.95824 0.536667 3.75002V3.78335C0.536667 5.08869 1.48 6.17735 2.73 6.42535C2.49507 6.48768 2.25305 6.51928 2.01 6.51935C1.83333 6.51935 1.662 6.50268 1.49467 6.46935C1.67339 7.00797 2.0154 7.47756 2.47321 7.81291C2.93102 8.14826 3.4819 8.33273 4.04933 8.34069C3.07604 9.09038 1.88121 9.49538 0.652667 9.49202C0.431333 9.49202 0.214 9.47868 0 9.45468C1.25417 10.2485 2.7084 10.6689 4.19267 10.6667C9.224 10.6667 11.9747 6.56202 11.9747 3.00269L11.9653 2.65402C12.5019 2.27646 12.9654 1.80458 13.3333 1.26135V1.26135Z" fill="white"/>
</svg>
