<svg width="16" height="16" viewBox="0 0 16 16" fill="none" xmlns="http://www.w3.org/2000/svg">
<path d="M8.10671 7.74668C8.08671 7.74668 8.07337 7.74668 8.05337 7.74668C8.02004 7.74001 7.97337 7.74001 7.93337 7.74668C6.00004 7.68668 4.54004 6.16668 4.54004 4.29334C4.54004 2.38668 6.09337 0.833344 8.00004 0.833344C9.90671 0.833344 11.46 2.38668 11.46 4.29334C11.4534 6.16668 9.98671 7.68668 8.12671 7.74668C8.12004 7.74668 8.11337 7.74668 8.10671 7.74668ZM8.00004 1.83334C6.64671 1.83334 5.54004 2.94001 5.54004 4.29334C5.54004 5.62668 6.58004 6.70001 7.90671 6.74668C7.94004 6.74001 8.03337 6.74001 8.12004 6.74668C9.42671 6.68668 10.4534 5.61334 10.46 4.29334C10.46 2.94001 9.35337 1.83334 8.00004 1.83334Z" fill="#917947"/>
<path d="M8.11307 15.0333C6.80641 15.0333 5.49307 14.7 4.49974 14.0333C3.57307 13.42 3.06641 12.58 3.06641 11.6667C3.06641 10.7533 3.57307 9.90666 4.49974 9.28666C6.49974 7.95999 9.73974 7.95999 11.7264 9.28666C12.6464 9.89999 13.1597 10.74 13.1597 11.6533C13.1597 12.5667 12.6531 13.4133 11.7264 14.0333C10.7264 14.7 9.41974 15.0333 8.11307 15.0333ZM5.05307 10.1267C4.41307 10.5533 4.06641 11.1 4.06641 11.6733C4.06641 12.24 4.41974 12.7867 5.05307 13.2067C6.71307 14.32 9.51307 14.32 11.1731 13.2067C11.8131 12.78 12.1597 12.2333 12.1597 11.66C12.1597 11.0933 11.8064 10.5467 11.1731 10.1267C9.51307 9.01999 6.71307 9.01999 5.05307 10.1267Z" fill="#3C4558"/>
</svg>
