<svg width="14" height="10" viewBox="0 0 14 10" fill="none" xmlns="http://www.w3.org/2000/svg">
<path d="M10.5413 0.000666667H2.76333C1.23667 0.000666667 0 1.224 0 2.73333V6.57867C0 8.088 1.23733 9.312 2.76333 9.312H10.5413C12.068 9.312 13.3047 8.088 13.3047 6.57867V2.73333C13.3047 1.224 12.0673 0 10.5413 0V0.000666667ZM8.67267 4.84267L5.03467 6.55933C5.01248 6.57002 4.98795 6.57491 4.96336 6.57357C4.93876 6.57222 4.91491 6.56468 4.89402 6.55164C4.87313 6.5386 4.85588 6.52048 4.84387 6.49898C4.83186 6.47748 4.82548 6.45329 4.82533 6.42867V2.88933C4.82578 2.86458 4.83248 2.84035 4.84482 2.81888C4.85715 2.79742 4.87472 2.77943 4.89588 2.76659C4.91704 2.75374 4.94111 2.74646 4.96585 2.74543C4.99058 2.74439 5.01517 2.74964 5.03733 2.76067L8.676 4.584C8.70023 4.59609 8.72057 4.61476 8.73467 4.63788C8.74877 4.66101 8.75607 4.68763 8.75572 4.71471C8.75537 4.74179 8.74739 4.76822 8.7327 4.79098C8.71801 4.81373 8.6972 4.83187 8.67267 4.84333V4.84267Z" fill="white"/>
</svg>
